<svg width="32" height="53" viewBox="0 0 32 53" fill="none" xmlns="http://www.w3.org/2000/svg">
<path d="M0.000909805 35.3514V25.3299C4.18292 28.9203 9.58798 31.1298 15.5059 31.1298C21.4633 31.1298 26.9078 28.9203 31.0898 25.251V35.312C26.4738 37.8765 21.1477 39.3758 15.5059 39.3758C9.86415 39.3758 4.57745 37.916 0.000909805 35.3514Z" fill="white"/>
<path d="M31.0898 41.7043V52.2782H0.000909805V41.7438C4.77472 43.8349 9.98251 45.0186 15.5059 45.0186C21.0688 45.0186 26.316 43.8349 31.0898 41.7043Z" fill="white"/>
<path d="M2.72316 6.3916H4.93253C4.93253 12.2309 9.66689 16.9655 15.5059 16.9655C21.345 16.9655 26.0793 12.2309 26.0793 6.3916H28.2887H31.0898V17.8335C27.5785 22.647 21.8973 25.7639 15.5059 25.7639C9.154 25.7639 3.51222 22.6865 0.000909805 17.9519V6.3916H2.72316Z" fill="white"/>
<path d="M9.11372 6.39169C9.11372 2.8802 11.9543 0 15.5051 0C19.0164 0 21.8965 2.8802 21.8965 6.39169C21.8965 9.90317 19.0164 12.7834 15.5051 12.7834C11.9543 12.7834 9.11372 9.94262 9.11372 6.39169Z" fill="white"/>
</svg>
