<svg width="50" height="35" viewBox="0 0 50 35" fill="none" xmlns="http://www.w3.org/2000/svg">
<path d="M5.28628 10.1591H4.56386V9.38378V8.60846V7.83315V7.05783V6.28251V5.50719V4.73188V3.95656V3.18923V2.41392H3.84144H3.11903H2.39661H1.68164V1.6386V0.863281H2.40406H3.12647H3.84889H4.57131H5.29372H6.01614H6.73856H7.45353H8.17594H8.89836V1.6386V2.41392H8.17594H7.45353H6.73111H6.00869V3.18923V3.96455V4.73987V5.51519V6.2905V7.06582V7.84114V8.61646V9.39177V10.1671H5.28628V10.1591Z" fill="black"/>
<path d="M15.3958 10.1591H14.6734H13.9509H13.2285H12.5061H11.7837V9.38378H11.0613V8.60846H10.3389V7.83315V7.05783V6.28251V5.50719V4.73188V3.95656V3.18923V2.41392H11.0613V1.6386H11.7837V0.863281H12.5061H13.2285H13.9509H14.6734H15.3958H16.1182V1.6386H16.8406V2.41392H17.563V3.18923V3.96455V4.73987V5.51519V6.2905V7.06582V7.84114V8.61646H16.8406V9.39177H16.1182V10.1671H15.3958V10.1591ZM14.6734 8.60846H15.3958V7.83315H16.1182V7.05783V6.28251V5.50719V4.73188V3.95656V3.18923H15.3958V2.41392H14.6734H13.9509H13.2285H12.5061V3.18923H11.7837V3.96455V4.73987V5.51519V6.2905V7.06582V7.84114H12.5061V8.61646H13.2285H13.9509H14.6734V8.60846Z" fill="black"/>
<path d="M23.3316 10.1591H22.6092H21.8867H21.1643H20.4419H19.7195H18.9971V9.38378V8.60846V7.83315V7.05783V6.28251V5.50719V4.73188V3.95656V3.18923V2.41392V1.6386V0.863281H19.7195H20.4419H21.1643H21.8867H22.6092H23.3316H24.054V1.6386H24.7764V2.41392H25.4988V3.18923H26.2212V3.96455V4.73987V5.51519V6.2905V7.06582V7.84114H25.4988V8.61646H24.7764V9.39177H24.054V10.1671H23.3316V10.1591ZM22.6166 8.60846H23.339V7.83315H24.0614V7.05783H24.7839V6.28251V5.50719V4.73188V3.95656H24.0614V3.18923H23.339V2.41392H22.6166H21.8942H21.1718H20.4494V3.18923V3.96455V4.73987V5.51519V6.2905V7.06582V7.84114V8.61646H21.1718H21.8942H22.6166V8.60846Z" fill="black"/>
<path d="M32.7151 10.1591H31.9927H31.2703H30.5479H29.8255H29.103V9.38378H28.3806V8.60846H27.6582V7.83315V7.05783V6.28251V5.50719V4.73188V3.95656V3.18923V2.41392H28.3806V1.6386H29.103V0.863281H29.8255H30.5479H31.2703H31.9927H32.7151H33.4375V1.6386H34.16V2.41392H34.8824V3.18923V3.96455V4.73987V5.51519V6.2905V7.06582V7.84114V8.61646H34.16V9.39177H33.4375V10.1671H32.7151V10.1591ZM31.9927 8.60846H32.7151V7.83315H33.4375V7.05783V6.28251V5.50719V4.73188V3.95656V3.18923H32.7151V2.41392H31.9927H31.2703H30.5479H29.8255V3.18923H29.103V3.96455V4.73987V5.51519V6.2905V7.06582V7.84114H29.8255V8.61646H30.5479H31.2703H31.9927V8.60846Z" fill="black"/>
<path d="M41.3802 10.1591H40.6577H39.9353H39.2129H38.4905H37.7681V9.38378H37.0457V8.60846H36.3232V7.83315V7.05783H37.0457H37.7681V7.83315H38.4905V8.60846H39.2129H39.9353H40.6577H41.3802V7.83315H42.1026V7.05783H41.3802V6.28251H40.6577H39.9353H39.2129H38.4905H37.7681V5.50719H37.0457V4.73188H36.3232V3.95656V3.18923V2.41392H37.0457V1.6386H37.7681V0.863281H38.4905H39.2129H39.9353H40.6577H41.3802H42.1026V1.6386H42.825V2.41392H43.5474V3.18923V3.96455H42.825H42.1026V3.18923H41.3802V2.41392H40.6577H39.9353H39.2129H38.4905V3.18923H37.7681V3.96455H38.4905V4.73987H39.2129H39.9353H40.6577H41.3802H42.1026V5.51519H42.825V6.2905H43.5474V7.06582V7.84114V8.61646H42.825V9.39177H42.1026V10.1671H41.3802V10.1591Z" fill="black"/>
<path d="M26.8416 22.9928H26.1192V22.2175V21.4422V20.6669H25.3968H24.6743H23.9519H23.2295H22.5071H21.7847V21.4422V22.2175V22.9928H21.0623H20.3398V22.2175V21.4422V20.6669H21.0623V19.8916V19.1163V18.3409H21.7847V17.5656V16.7903V16.023H22.5071V15.2477V14.4723H23.2295V13.697H23.9519H24.6743V14.4723H25.3968V15.2477V16.023H26.1192V16.7983V17.5736V18.3489H26.8416V19.1242V19.8996V20.6749H27.564V21.4502V22.2255V23.0008H26.8416V22.9928ZM24.6743 19.1163H25.3968V18.3409H24.6743V17.5656V16.7903V16.023H23.9519H23.2295V16.7983V17.5736V18.3489H22.5071V19.1242H23.2295H23.9519H24.6743V19.1163Z" fill="black"/>
<path d="M6.8455 34.9916H6.12308V34.2163V33.441V32.6657V31.8903V31.115V30.3397V29.5644V28.7891H5.40066V29.5644H4.67825V30.3397V31.115H3.95583H3.23342V30.3397V29.5644H2.511V28.7891H1.78858V29.5644V30.3397V31.115V31.8903V32.6657V33.441V34.2163V34.9916H1.06617H0.34375V34.2163V33.441V32.6657V31.8903V31.115V30.3397V29.5644V28.7891V28.0218V27.2464V26.4711V25.6958H1.06617H1.78858V26.4711H2.511V27.2464H3.23342V28.0218H3.95583H4.67825V27.2464H5.40066V26.4711H6.12308V25.6958H6.8455H7.56791V26.4711V27.2464V28.0218V28.7971V29.5724V30.3477V31.123V31.8983V32.6737V33.449V34.2243V34.9996H6.8455V34.9916Z" fill="black"/>
<path d="M15.5066 34.9916H14.7842H14.0618H13.3394H12.617H11.8945H11.1721H10.4497H9.7273H9.00488V34.2163V33.441V32.6657V31.8903V31.115V30.3397V29.5644V28.7891V28.0218V27.2464V26.4711V25.6958H9.7273H10.4497H11.1721H11.8945H12.617H13.3394H14.0618H14.7842H15.5066H16.229V26.4711V27.2464H15.5066H14.7842H14.0618H13.3394H12.617H11.8945H11.1721H10.4497V28.0218V28.7971V29.5724H11.1721H11.8945H12.617H13.3394H14.0618H14.7842V30.3477V31.123H14.0618H13.3394H12.617H11.8945H11.1721H10.4497V31.8983V32.6737V33.449H11.1721H11.8945H12.617H13.3394H14.0618H14.7842H15.5066H16.229V34.2243V34.9996H15.5066V34.9916Z" fill="black"/>
<path d="M24.1668 34.9916H23.4444V34.2163V33.441H22.7219V32.6657H21.9995V31.8903H21.2771H20.5547H19.8323H19.1099V32.6657V33.441V34.2163V34.9916H18.3875H17.665V34.2163V33.441V32.6657V31.8903V31.115V30.3397V29.5644V28.7891V28.0218V27.2464V26.4711V25.6958H18.3875H19.1099H19.8323H20.5547H21.2771H21.9995H22.7219H23.4444V26.4711H24.1668V27.2464H24.8892V28.0218V28.7971V29.5724V30.3477H24.1668V31.123H23.4444V31.8983H24.1668V32.6737H24.8892V33.449V34.2243V34.9996H24.1668V34.9916ZM21.9995 30.3397H22.7219V29.5644H23.4444V28.7891V28.0218H22.7219V27.2464H21.9995H21.2771H20.5547H19.8323H19.1099V28.0218V28.7971V29.5724V30.3477H19.8323H20.5547H21.2771H21.9995V30.3397Z" fill="black"/>
<path d="M31.3865 34.9916H30.6641H29.9417H29.2192H28.4968H27.7744V34.2163V33.441H28.4968H29.2192V32.6657V31.8903V31.115V30.3397V29.5644V28.7891V28.0218V27.2464H28.4968H27.7744V26.4711V25.6958H28.4968H29.2192H29.9417H30.6641H31.3865H32.1089V26.4711V27.2464H31.3865H30.6641V28.0218V28.7971V29.5724V30.3477V31.123V31.8983V32.6737V33.449H31.3865H32.1089V34.2243V34.9996H31.3865V34.9916Z" fill="black"/>
<path d="M37.8775 34.9916H37.1551H36.4326H35.7102H34.9878H34.2654H33.543V34.2163V33.441V32.6657V31.8903V31.115V30.3397V29.5644V28.7891V28.0218V27.2464V26.4711V25.6958H34.2654H34.9878H35.7102H36.4326H37.1551H37.8775H38.5999V26.4711H39.3223V27.2464H40.0447V28.0218H40.7671V28.7971V29.5724V30.3477V31.123V31.8983V32.6737H40.0447V33.449H39.3223V34.2243H38.5999V34.9996H37.8775V34.9916ZM37.1551 33.441H37.8775V32.6657H38.5999V31.8903H39.3223V31.115V30.3397V29.5644V28.7891H38.5999V28.0218H37.8775V27.2464H37.1551H36.4326H35.7102H34.9878V28.0218V28.7971V29.5724V30.3477V31.123V31.8983V32.6737V33.449H35.7102H36.4326H37.1551V33.441Z" fill="black"/>
<path d="M48.7058 34.9916H47.9834V34.2163V33.441V32.6657H47.261H46.5386H45.8162H45.0938H44.3713H43.6489V33.441V34.2163V34.9916H42.9265H42.2041V34.2163V33.441V32.6657H42.9265V31.8903V31.115V30.3397H43.6489V29.5644V28.7891V28.0218H44.3713V27.2464V26.4711H45.0938V25.6958H45.8162H46.5386V26.4711H47.261V27.2464V28.0218H47.9834V28.7971V29.5724V30.3477H48.7058V31.123V31.8983V32.6737H49.4283V33.449V34.2243V34.9996H48.7058V34.9916ZM46.5386 31.115H47.261V30.3397H46.5386V29.5644V28.7891V28.0218H45.8162H45.0938V28.7971V29.5724V30.3477H44.3713V31.123H45.0938H45.8162H46.5386V31.115Z" fill="black"/>
<path d="M4.94607 9.30381H4.22365V8.52849V7.75318V6.97786V6.20254V5.42722V4.65191V3.87659V3.10127V2.32595V1.55064H3.50123H2.77882H2.0564H1.33398V0.775318V0H2.0564H2.77882H3.50123H4.22365H4.94607H5.66848H6.3909H7.11332H7.83573H8.55815V0.775318V1.55064H7.83573H7.11332H6.3909H5.66848V2.32595V3.10127V3.87659V4.65191V5.42722V6.20254V6.97786V7.75318V8.52849V9.30381H4.94607Z" fill="white"/>
<path d="M15.052 9.30381H14.3296H13.6072H12.8848H12.1624H11.44V8.52849H10.7175V7.75318H9.99512V6.97786V6.20254V5.42722V4.65191V3.87659V3.10127V2.32595V1.55064H10.7175V0.775318H11.44V0H12.1624H12.8848H13.6072H14.3296H15.052H15.7745V0.775318H16.4969V1.55064H17.2193V2.32595V3.10127V3.87659V4.65191V5.42722V6.20254V6.97786V7.75318H16.4969V8.52849H15.7745V9.30381H15.052ZM14.3296 7.75318H15.052V6.97786H15.7745V6.20254V5.42722V4.65191V3.87659V3.10127V2.32595H15.052V1.55064H14.3296H13.6072H12.8848H12.1624V2.32595H11.44V3.10127V3.87659V4.65191V5.42722V6.20254V6.97786H12.1624V7.75318H12.8848H13.6072H14.3296Z" fill="white"/>
<path d="M22.9878 9.30381H22.2654H21.543H20.8206H20.0982H19.3757H18.6533V8.52849V7.75318V6.97786V6.20254V5.42722V4.65191V3.87659V3.10127V2.32595V1.55064V0.775318V0H19.3757H20.0982H20.8206H21.543H22.2654H22.9878H23.7102V0.775318H24.4327V1.55064H25.1551V2.32595H25.8775V3.10127V3.87659V4.65191V5.42722V6.20254V6.97786H25.1551V7.75318H24.4327V8.52849H23.7102V9.30381H22.9878ZM22.2654 7.75318H22.9878V6.97786H23.7102V6.20254H24.4327V5.42722V4.65191V3.87659V3.10127H23.7102V2.32595H22.9878V1.55064H22.2654H21.543H20.8206H20.0982V2.32595V3.10127V3.87659V4.65191V5.42722V6.20254V6.97786V7.75318H20.8206H21.543H22.2654Z" fill="white"/>
<path d="M32.3753 9.30381H31.6529H30.9304H30.208H29.4856H28.7632V8.52849H28.0408V7.75318H27.3184V6.97786V6.20254V5.42722V4.65191V3.87659V3.10127V2.32595V1.55064H28.0408V0.775318H28.7632V0H29.4856H30.208H30.9304H31.6529H32.3753H33.0977V0.775318H33.8201V1.55064H34.5425V2.32595V3.10127V3.87659V4.65191V5.42722V6.20254V6.97786V7.75318H33.8201V8.52849H33.0977V9.30381H32.3753ZM31.6529 7.75318H32.3753V6.97786H33.0977V6.20254V5.42722V4.65191V3.87659V3.10127V2.32595H32.3753V1.55064H31.6529H30.9304H30.208H29.4856V2.32595H28.7632V3.10127V3.87659V4.65191V5.42722V6.20254V6.97786H29.4856V7.75318H30.208H30.9304H31.6529Z" fill="white"/>
<path d="M41.0384 9.30381H40.3159H39.5935H38.8711H38.1487H37.4263V8.52849H36.7039V7.75318H35.9814V6.97786V6.20254H36.7039H37.4263V6.97786H38.1487V7.75318H38.8711H39.5935H40.3159H41.0384V6.97786H41.7608V6.20254H41.0384V5.42722H40.3159H39.5935H38.8711H38.1487H37.4263V4.65191H36.7039V3.87659H35.9814V3.10127V2.32595V1.55064H36.7039V0.775318H37.4263V0H38.1487H38.8711H39.5935H40.3159H41.0384H41.7608V0.775318H42.4832V1.55064H43.2056V2.32595V3.10127H42.4832H41.7608V2.32595H41.0384V1.55064H40.3159H39.5935H38.8711H38.1487V2.32595H37.4263V3.10127H38.1487V3.87659H38.8711H39.5935H40.3159H41.0384H41.7608V4.65191H42.4832V5.42722H43.2056V6.20254V6.97786V7.75318H42.4832V8.52849H41.7608V9.30381H41.0384Z" fill="white"/>
<path d="M26.4998 22.1376H25.7774V21.3622V20.5869V19.8116H25.055H24.3325H23.6101H22.8877H22.1653H21.4429V20.5869V21.3622V22.1376H20.7205H19.998V21.3622V20.5869V19.8116H20.7205V19.0363V18.261V17.4856H21.4429V16.7103V15.935V15.1597H22.1653V14.3844V13.6091H22.8877V12.8337H23.6101H24.3325V13.6091H25.055V14.3844V15.1597H25.7774V15.935V16.7103V17.4856H26.4998V18.261V19.0363V19.8116H27.2222V20.5869V21.3622V22.1376H26.4998ZM24.3325 18.261H25.055V17.4856H24.3325V16.7103V15.935V15.1597H23.6101H22.8877V15.935V16.7103V17.4856H22.1653V18.261H22.8877H23.6101H24.3325Z" fill="white"/>
<path d="M6.4943 34.1363H5.77188V33.361V32.5857V31.8104V31.0351V30.2597V29.4844V28.7091V27.9338H5.04947V28.7091H4.32705V29.4844V30.2597H3.60464H2.88222V29.4844V28.7091H2.1598V27.9338H1.44483V28.7091V29.4844V30.2597V31.0351V31.8104V32.5857V33.361V34.1363H0.722417H0V33.361V32.5857V31.8104V31.0351V30.2597V29.4844V28.7091V27.9338V27.1585V26.3832V25.6078V24.8325H0.722417H1.44483V25.6078H2.16725V26.3832H2.88967V27.1585H3.61208H4.3345V26.3832H5.05692V25.6078H5.77934V24.8325H6.50175H7.22416V25.6078V26.3832V27.1585V27.9338V28.7091V29.4844V30.2597V31.0351V31.8104V32.5857V33.361V34.1363H6.4943Z" fill="white"/>
<path d="M15.1574 34.1363H14.435H13.7126H12.9901H12.2677H11.5453H10.8303H10.1079H9.3855H8.66309V33.361V32.5857V31.8104V31.0351V30.2597V29.4844V28.7091V27.9338V27.1585V26.3832V25.6078V24.8325H9.3855H10.1079H10.8303H11.5528H12.2752H12.9976H13.72H14.4424H15.1648H15.8873V25.6078V26.3832H15.1648H14.4424H13.72H12.9901H12.2677H11.5453H10.8303H10.1079V27.1585V27.9338V28.7091H10.8303H11.5528H12.2752H12.9976H13.72H14.4424V29.4844V30.2597H13.72H12.9901H12.2677H11.5453H10.8303H10.1079V31.0351V31.8104V32.5857H10.8303H11.5528H12.2752H12.9976H13.72H14.4424H15.1648H15.8873V33.361V34.1363H15.1574Z" fill="white"/>
<path d="M23.8172 34.1363H23.0948V33.361V32.5857H22.3723V31.8104H21.6499V31.0351H20.9275H20.2051H19.4827H18.7603V31.8104V32.5857V33.361V34.1363H18.0379H17.3154V33.361V32.5857V31.8104V31.0351V30.2597V29.4844V28.7091V27.9338V27.1585V26.3832V25.6078V24.8325H18.0379H18.7603H19.4827H20.2051H20.9275H21.6499H22.3723H23.0948V25.6078H23.8172V26.3832H24.5396V27.1585V27.9338V28.7091V29.4844H23.8172V30.2597H23.0948V31.0351H23.8172V31.8104H24.5396V32.5857V33.361V34.1363H23.8172ZM21.6499 29.4844H22.3723V28.7091H23.0948V27.9338V27.1585H22.3723V26.3832H21.6499H20.9275H20.2051H19.4827H18.7603V27.1585V27.9338V28.7091V29.4844H19.4827H20.2051H20.9275H21.6499Z" fill="white"/>
<path d="M31.0359 34.1363H30.3135H29.5911H28.8687H28.1462H27.4238V33.361V32.5857H28.1462H28.8687V31.8104V31.0351V30.2597V29.4844V28.7091V27.9338V27.1585V26.3832H28.1462H27.4238V25.6078V24.8325H28.1462H28.8687H29.5911H30.3135H31.0359H31.7583V25.6078V26.3832H31.0359H30.3135V27.1585V27.9338V28.7091V29.4844V30.2597V31.0351V31.8104V32.5857H31.0359H31.7583V33.361V34.1363H31.0359Z" fill="white"/>
<path d="M37.5376 34.1363H36.8152H36.0928H35.3704H34.648H33.9255H33.2031V33.361V32.5857V31.8104V31.0351V30.2597V29.4844V28.7091V27.9338V27.1585V26.3832V25.6078V24.8325H33.9255H34.648H35.3704H36.0928H36.8152H37.5376H38.26V25.6078H38.9825V26.3832H39.7049V27.1585H40.4273V27.9338V28.7091V29.4844V30.2597V31.0351V31.8104H39.7049V32.5857H38.9825V33.361H38.26V34.1363H37.5376ZM36.8152 32.5857H37.5376V31.8104H38.26V31.0351H38.9825V30.2597V29.4844V28.7091V27.9338H38.26V27.1585H37.5376V26.3832H36.8152H36.0928H35.3704H34.648V27.1585V27.9338V28.7091V29.4844V30.2597V31.0351V31.8104V32.5857H35.3704H36.0928H36.8152Z" fill="white"/>
<path d="M48.3572 34.1363H47.6348V33.361V32.5857V31.8104H46.9124H46.19H45.4676H44.7451H44.0227H43.3003V32.5857V33.361V34.1363H42.5779H41.8555V33.361V32.5857V31.8104H42.5779V31.0351V30.2597V29.4844H43.3003V28.7091V27.9338V27.1585H44.0227V26.3832V25.6078H44.7451V24.8325H45.4676H46.19V25.6078H46.9124V26.3832V27.1585H47.6348V27.9338V28.7091V29.4844H48.3572V30.2597V31.0351V31.8104H49.0796V32.5857V33.361V34.1363H48.3572ZM46.1974 30.2597H46.9198V29.4844H46.1974V28.7091V27.9338V27.1585H45.475H44.7526V27.9338V28.7091V29.4844H44.0302V30.2597H44.7526H45.475H46.1974Z" fill="white"/>
<path d="M14.909 23.4928V24.2682H14.1865H13.4641H12.7417H12.0193H11.2969V23.4928V22.7175H12.0193H12.7417H13.4641H14.1865H14.909V23.4928Z" fill="black"/>
<path d="M14.2781 22.9406V23.7159H13.5557H12.8333H12.1109H11.3884H10.666V22.9406V22.1653H11.3884H12.1109H12.8333H13.5557H14.2781V22.9406Z" fill="#E1FF95"/>
</svg>
