<svg xmlns="http://www.w3.org/2000/svg" width="16" height="16" fill="none"><path fill="#A408FF" d="m10.855 3.604-.262-.048c-1.02-.186-2.276.1-3.056.695L5.074 6.13c-.73.558-1.312 1.322-1.594 2.096-.21.572-.35 1.41.16 2.144l.256.367c.506.73 1.33 1.108 2.322 1.065 1.526-.068 3.066-1.085 3.924-2.594l2.12-3.724c.193-.338.22-.661.078-.96-.21-.446-.765-.79-1.485-.921Z"/><path fill="#A408FF" d="m13.403.405-.49-.089C10.968-.039 8.569.508 7.08 1.644L2.462 5.169A9.602 9.602 0 0 0 0 7.947v5.708l.224.324c.752 1.082 1.865 1.763 3.205 1.98l1.953.007c2.67-.377 5.273-2.225 6.776-4.862L16 4.353V1.756c-.524-.651-1.455-1.142-2.597-1.35Zm1.16 4.876-3.016 5.298c-1.123 1.971-3.014 3.425-5.06 3.886-.363.081-.73.132-1.089.147-.085.003-.169.006-.252.006-1.542 0-2.83-.637-3.646-1.811l-.363-.523c-1.5-2.158-.067-5.227 2.186-6.946l3.504-2.674c1.252-.954 3.262-1.415 4.888-1.119l.372.068c1.24.226 2.215.856 2.608 1.686.297.624.251 1.309-.131 1.982Z"/><path fill="#A408FF" d="m11.978 2.195-.371-.068a5.168 5.168 0 0 0-.934-.081c-1.249 0-2.582.4-3.478 1.085L3.69 5.804c-1.053.804-1.889 1.903-2.296 3.018-.303.831-.508 2.048.238 3.122l.364.523c.737 1.061 1.936 1.612 3.376 1.549 2.198-.097 4.416-1.562 5.651-3.731l3.017-5.3c.284-.498.322-.997.111-1.441-.312-.651-1.124-1.159-2.174-1.35Zm.756 3.55-2.121 3.724c-.797 1.4-2.141 2.43-3.596 2.76a4.372 4.372 0 0 1-.955.109c-1.105 0-2.027-.458-2.612-1.299l-.255-.368c-1.073-1.546-.055-3.737 1.55-4.962l2.463-1.88c.893-.681 2.324-1.009 3.483-.798l.262.047c.89.163 1.593.618 1.877 1.217.215.458.183.96-.096 1.45Z"/></svg>